<svg width="20.014709" height="17.990234" viewBox="0 0 20.0147 17.9902" fill="none" xmlns="http://www.w3.org/2000/svg" xmlns:xlink="http://www.w3.org/1999/xlink">
	<desc>
			Created with Pixso.
	</desc>
	<defs/>
	<path id="Vector" d="M14.48 7.4C14.09 7.79 13.44 7.79 13.05 7.4L8.58 2.94L1.53 9.98L0.87 9.35C0.31 8.79 0 8.03 0 7.23C0 6.44 0.31 5.68 0.87 5.11L5.11 0.87C5.67 0.31 6.44 0 7.23 0C8.03 0 8.79 0.31 9.35 0.87L14.48 5.99C14.87 6.38 14.87 7.01 14.48 7.4ZM15.18 5.28C15.96 6.06 15.96 7.33 15.18 8.11C13.91 9.38 12.57 8.33 12.35 8.11L8.59 4.35L3.02 9.92C2.93 10.02 2.86 10.12 2.81 10.25C2.76 10.37 2.73 10.5 2.73 10.63C2.73 10.76 2.76 10.89 2.81 11.01C2.86 11.13 2.93 11.24 3.02 11.33C3.41 11.72 4.04 11.72 4.44 11.33L9.06 6.71L9.77 7.42L5.15 12.04C5.06 12.14 4.99 12.25 4.94 12.37C4.89 12.49 4.86 12.62 4.86 12.75C4.86 12.88 4.89 13.01 4.94 13.13C4.99 13.25 5.06 13.36 5.15 13.45C5.54 13.84 6.17 13.84 6.57 13.45L11.19 8.83L11.9 9.54L7.28 14.16C7.19 14.26 7.12 14.37 7.07 14.49C7.02 14.61 6.99 14.74 6.99 14.87C6.99 15 7.02 15.13 7.07 15.25C7.12 15.37 7.19 15.48 7.28 15.57C7.37 15.67 7.48 15.74 7.61 15.79C7.73 15.84 7.86 15.87 7.99 15.87C8.12 15.87 8.25 15.84 8.37 15.79C8.49 15.74 8.6 15.67 8.69 15.57L13.31 10.95L14.02 11.66L9.4 16.28C9.31 16.38 9.24 16.49 9.19 16.61C9.14 16.73 9.11 16.86 9.11 16.99C9.11 17.12 9.14 17.25 9.19 17.37C9.24 17.49 9.31 17.6 9.4 17.69C9.59 17.88 9.84 17.99 10.11 17.99C10.24 17.99 10.37 17.96 10.49 17.91C10.61 17.86 10.72 17.79 10.81 17.69L19.13 9.35C19.69 8.79 20.01 8.03 20.01 7.23C20.01 6.44 19.69 5.68 19.13 5.11L14.89 0.87C14.34 0.32 13.59 0.01 12.81 0C12.03 -0.02 11.28 0.28 10.71 0.81L15.18 5.28Z" fill="#BC3324" fill-opacity="1.000000" fill-rule="nonzero"/>
</svg>