<svg  xmlns="http://www.w3.org/2000/svg" xmlns:xlink="http://www.w3.org/1999/xlink">
	<desc>
			Created with Pixso.
	</desc>
	<defs/>
	<path id="Vector" d="M11 0.76L17 6.02C17.31 6.3 17.56 6.65 17.74 7.04C17.91 7.42 18 7.84 18 8.27L18 17.02C18 17.81 17.68 18.58 17.12 19.14C16.55 19.7 15.79 20.02 15 20.02L3 20.02C2.2 20.02 1.44 19.7 0.87 19.14C0.31 18.58 9.15e-5 17.81 9.15e-5 17.02L9.15e-5 8.28C-0.01 7.85 0.08 7.43 0.25 7.04C0.42 6.65 0.68 6.3 1 6.02L7 0.76C7.55 0.27 8.26 0 9 0C9.73 0 10.45 0.27 11 0.76ZM7 18.02L11 18.02L11 13.02C11 12.75 10.89 12.5 10.7 12.31C10.51 12.12 10.26 12.02 10 12.02L8 12.02C7.73 12.02 7.48 12.12 7.29 12.31C7.1 12.5 7 12.75 7 13.02L7 18.02Z" fill="#BC3324" fill-opacity="1.000000" fill-rule="evenodd"/>
</svg>