<svg width="19.888733" height="19.927734" viewBox="0 0 19.8887 19.9277" fill="none" xmlns="http://www.w3.org/2000/svg" xmlns:xlink="http://www.w3.org/1999/xlink">
	<desc>
			Created with Pixso.
	</desc>
	<defs/>
	<path id="Vector" d="M19.88 14.91L19.88 17.91C19.88 18.19 19.83 18.47 19.72 18.72C19.6 18.98 19.44 19.21 19.24 19.4C19.03 19.58 18.79 19.73 18.52 19.82C18.26 19.91 17.98 19.94 17.7 19.91C14.63 19.58 11.67 18.53 9.07 16.84C6.66 15.31 4.61 13.26 3.07 10.84C1.38 8.24 0.33 5.27 0 2.17C-0.02 1.9 0.01 1.62 0.1 1.36C0.19 1.09 0.33 0.85 0.52 0.65C0.71 0.44 0.93 0.28 1.19 0.17C1.44 0.05 1.72 0 1.99 0L4.99 0C5.48 -0.01 5.95 0.16 6.32 0.48C6.68 0.79 6.93 1.23 6.99 1.71C7.12 2.67 7.35 3.62 7.69 4.53C7.83 4.88 7.86 5.27 7.78 5.65C7.7 6.02 7.51 6.36 7.24 6.63L5.97 7.91C7.4 10.41 9.47 12.48 11.97 13.91L13.24 12.63C13.52 12.37 13.86 12.18 14.23 12.1C14.61 12.02 15 12.05 15.35 12.19C16.26 12.52 17.2 12.76 18.16 12.88C18.65 12.95 19.09 13.2 19.41 13.57C19.73 13.95 19.9 14.42 19.88 14.91Z" fill="#BC3324" fill-opacity="1.000000" fill-rule="nonzero"/>
</svg>