<svg  xmlns="http://www.w3.org/2000/svg" xmlns:xlink="http://www.w3.org/1999/xlink">
	<desc>
			Created with Pixso.
	</desc>
	<defs/>
	<path id="Vector" d="M19.99 7.23C19.93 7.05 19.81 6.89 19.66 6.77C19.51 6.65 19.32 6.58 19.13 6.56L13.44 5.73L10.89 0.56C10.81 0.39 10.68 0.25 10.52 0.15C10.36 0.05 10.18 0 9.99 0C9.8 0 9.62 0.05 9.46 0.15C9.3 0.25 9.17 0.39 9.09 0.56L6.54 5.72L0.85 6.56C0.66 6.59 0.49 6.66 0.35 6.78C0.2 6.9 0.1 7.06 0.04 7.24C-0.01 7.41 -0.02 7.6 0.02 7.77C0.07 7.95 0.16 8.11 0.29 8.24L4.42 12.24L3.42 17.92C3.38 18.11 3.4 18.3 3.47 18.48C3.54 18.65 3.66 18.81 3.82 18.92C3.97 19.03 4.15 19.09 4.33 19.1C4.52 19.12 4.7 19.08 4.87 18.99L9.99 16.32L15.09 19C15.23 19.08 15.39 19.12 15.55 19.12C15.76 19.12 15.97 19.05 16.14 18.93C16.29 18.82 16.41 18.66 16.48 18.49C16.56 18.31 16.57 18.12 16.54 17.93L15.54 12.25L19.67 8.25C19.81 8.13 19.92 7.97 19.98 7.79C20.03 7.6 20.04 7.41 19.99 7.23Z" fill="currentColor" fill-opacity="1.000000" fill-rule="evenodd"/>
</svg>