<svg xmlns="http://www.w3.org/2000/svg" xmlns:xlink="http://www.w3.org/1999/xlink"><defs>
        <clipPath id="a">
            <path fill="#fff" transform="rotate(90 21.5 21.5)" d="M0 0h70v24H0z"/>
        </clipPath>
    </defs><symbol id="door"><g fill="none">
    <path d="m10 17 5-5-5-5M15 12H3M15 3h4a2 2 0 0 1 2 2v14a2 2 0 0 1-2 2h-4" stroke="#1F1E1E" stroke-width="2" stroke-linecap="round" stroke-linejoin="round"/>
</g></symbol><symbol id="ellipse"><g fill="currentColor">
    <circle cx="9" cy="9" r="9" fill="#BC3324"/>
</g></symbol><symbol id="frame" viewBox="0 0 62 92"><g fill="none">
    <path d="M9.787 40a29.837 29.837 0 0 0-8.21 15.297 29.76 29.76 0 0 0 1.707 17.26 29.902 29.902 0 0 0 11.049 13.408A30.089 30.089 0 0 0 31 91a30.089 30.089 0 0 0 16.667-5.035 29.902 29.902 0 0 0 11.05-13.407 29.76 29.76 0 0 0 1.706-17.262A29.836 29.836 0 0 0 52.213 40" stroke="#1F1E1E" stroke-width="2" stroke-linecap="round"/>
    <g clip-path="url(#a)" stroke="#1F1E1E" stroke-width="2" stroke-linecap="round" stroke-linejoin="round">
        <path d="M31 5v60M38 58l-7 7-7-7"/>
    </g>
    
</g></symbol><symbol id="hands"><g fill="none">
    <path d="M14.48 7.4c-.39.39-1.04.39-1.43 0L8.58 2.94 1.53 9.98l-.66-.63C.31 8.79 0 8.03 0 7.23c0-.79.31-1.55.87-2.12L5.11.87C5.67.31 6.44 0 7.23 0c.8 0 1.56.31 2.12.87l5.13 5.12c.39.39.39 1.02 0 1.41Zm.7-2.12c.78.78.78 2.05 0 2.83-1.27 1.27-2.61.22-2.83 0L8.59 4.35 3.02 9.92c-.09.1-.16.2-.21.33-.05.12-.08.25-.08.38s.03.26.08.38.12.23.21.32c.39.39 1.02.39 1.42 0l4.62-4.62.71.71-4.62 4.62c-.09.1-.16.21-.21.33-.05.12-.08.25-.08.38s.03.26.08.38.12.23.21.32c.39.39 1.02.39 1.42 0l4.62-4.62.71.71-4.62 4.62c-.09.1-.16.21-.21.33-.05.12-.08.25-.08.38s.03.26.08.38.12.23.21.32c.09.1.2.17.33.22.12.05.25.08.38.08a.995.995 0 0 0 .7-.3l4.62-4.62.71.71-4.62 4.62c-.09.1-.16.21-.21.33-.05.12-.08.25-.08.38s.03.26.08.38.12.23.21.32a1 1 0 0 0 .71.3.995.995 0 0 0 .7-.3l8.32-8.34c.56-.56.88-1.32.88-2.12 0-.79-.32-1.55-.88-2.12L14.89.87c-.55-.55-1.3-.86-2.08-.87-.78-.02-1.53.28-2.1.81l4.47 4.47Z" fill="#BC3324"/>
</g></symbol><symbol id="home">
    <path d="m11 .76 6 5.26c.31.28.56.63.74 1.02.17.38.26.8.26 1.23v8.75c0 .79-.32 1.56-.88 2.12-.57.56-1.33.88-2.12.88H3c-.8 0-1.56-.32-2.13-.88-.56-.56-.87-1.33-.87-2.12V8.28a2.926 2.926 0 0 1 1-2.26L7 .76C7.55.27 8.26 0 9 0c.73 0 1.45.27 2 .76ZM7 18.02h4v-5a1 1 0 0 0-.3-.71.984.984 0 0 0-.7-.29H8a.99.99 0 0 0-1 1v5Z" fill="#BC3324" fill-rule="evenodd"/>
</symbol><symbol id="logo" viewBox="0 0 202 147"><g fill="none">
    <path fill="#1F1E1E" d="M0 0h147v147H0z"/>
    <path d="M39.965 72.439H26.633V50.032h-.032v-.033h-4.686V73h18.05v-.561ZM43.932 73h18.117v-.561H48.618V61.285h10.494v-.594H48.618V50.56h13.43v-.561H43.933V73ZM70.7 73V50.56c2.87 0 11.714 1.089 12.374 13.893V73h4.686V49.999h-4.686v10.329C81.655 54.19 77.167 49.999 70.7 49.999h-4.686V73H70.7ZM97.39 73V50.56c2.87 0 11.714 1.089 12.374 13.893V73h4.686V49.999h-4.686v10.329c-1.419-6.138-5.907-10.329-12.375-10.329h-4.686V73h4.686ZM119.393 73h4.686V49.999h-4.686V73Z" fill="#fff"/>
    <path fill="#BC3324" d="M81 92h121v42H81z"/>
    <path d="M108.922 124h.54l2.94-8.55h8.55l3.33 8.55h4.47l-8.1-20.91h-4.53l-7.2 20.91Zm7.5-20.25 4.35 11.19h-8.19l3.84-11.19ZM132.644 103.09V124h4.26v-7.23h5.07l4.89 7.2h4.86l-5.16-7.65c3-.78 5.28-2.64 5.28-6.81 0-5.22-3.81-6.87-8.25-6.87-4.68 0-6.03 3.51-6.69 7.41v-6.96h-4.26Zm5.43 4.38c.81-2.94 2.91-4.14 4.77-4.29 4.47-.42 4.65 2.43 4.65 6.33 0 6.33-3.36 6.75-6.24 6.75h-4.35s-.12-4.14 1.17-8.79ZM162.084 103.6l.03 20.4h4.26v-20.4h8.61v-.51h-21.51v.51h8.61Z" fill="#fff"/>
</g></symbol><symbol id="ok" viewBox="0 0 26 26">
    <circle cx="13" cy="13" r="13" fill="#1F1E1E"/>
    <path d="M19.71 8.21a1 1 0 0 0-1.42 0l-7.45 7.46-3.13-3.14A1.02 1.02 0 1 0 6.29 14l3.84 3.84a1.002 1.002 0 0 0 1.42 0l8.16-8.16a1 1 0 0 0 0-1.47Z" fill="#fff"/>
</symbol><symbol id="phone"><g fill="none">
    <path d="M19.88 14.91v3c0 .28-.05.56-.16.81-.12.26-.28.49-.48.68-.21.18-.45.33-.72.42-.26.09-.54.12-.82.09-3.07-.33-6.03-1.38-8.63-3.07a19.518 19.518 0 0 1-6-6C1.38 8.24.33 5.27 0 2.17c-.02-.27.01-.55.1-.81.09-.27.23-.51.42-.71.19-.21.41-.37.67-.48.25-.12.53-.17.8-.17h3c.49-.01.96.16 1.33.48.36.31.61.75.67 1.23.13.96.36 1.91.7 2.82.14.35.17.74.09 1.12-.08.37-.27.71-.54.98L5.97 7.91c1.43 2.5 3.5 4.57 6 6l1.27-1.28c.28-.26.62-.45.99-.53.38-.08.77-.05 1.12.09.91.33 1.85.57 2.81.69.49.07.93.32 1.25.69.32.38.49.85.47 1.34Z" fill="#BC3324"/>
</g></symbol><symbol id="see" viewBox="0 0 92 62"><g fill="none">
    <path d="M40 52.213a29.836 29.836 0 0 0 15.297 8.21 29.76 29.76 0 0 0 17.26-1.707 29.902 29.902 0 0 0 13.408-11.049A30.089 30.089 0 0 0 91 31a30.089 30.089 0 0 0-5.035-16.667 29.902 29.902 0 0 0-13.407-11.05 29.76 29.76 0 0 0-17.262-1.707A29.837 29.837 0 0 0 40 9.786" stroke="currentColor" stroke-width="2" stroke-linecap="round"/>
    <path d="M5 31h60M58 24l7 7-7 7" stroke="currentColor" stroke-width="2" stroke-linecap="round" stroke-linejoin="round"/>
</g></symbol><symbol id="star">
    <path d="M19.99 7.23a1.009 1.009 0 0 0-.86-.67l-5.69-.83L10.89.56a.976.976 0 0 0-.37-.41.988.988 0 0 0-.53-.15c-.19 0-.37.05-.53.15-.16.1-.29.24-.37.41L6.54 5.72l-5.69.84a.99.99 0 0 0-.83 1.21c.05.18.14.34.27.47l4.13 4-1 5.68a.975.975 0 0 0 .4 1c.15.11.33.17.51.18.19.02.37-.02.54-.11l5.12-2.67 5.1 2.68c.14.08.3.12.46.12.21 0 .42-.07.59-.19.15-.11.27-.27.34-.44.08-.18.09-.37.06-.56l-1-5.68 4.13-4c.14-.12.25-.28.31-.46.05-.19.06-.38.01-.56Z" fill="currentColor" fill-rule="evenodd"/>
</symbol><symbol id="subtract"/><symbol id="tagree" viewBox="0 0 57 17">
    <path d="M6.301 12.695H4.107a3.15 3.15 0 0 1-1.276-.262 3.309 3.309 0 0 1-1.037-.704 3.6 3.6 0 0 1-.698-1.066 3.227 3.227 0 0 1-.26-1.288V.604L3.23 0v3.843h1.396l.598 2.414H3.23v3.118c0 .255.086.47.26.644a.84.84 0 0 0 .617.261h1.596l.598 2.415ZM16.7 2.615v10.08h-2.393v-5.03c0-.805-.28-1.489-.838-2.052a2.757 2.757 0 0 0-2.034-.845 2.91 2.91 0 0 0-1.117.221 2.862 2.862 0 0 0-.917.624 2.806 2.806 0 0 0-.837 2.052c0 .791.279 1.469.837 2.032.266.282.572.496.918.644.358.134.73.201 1.116.201.4 0 .758-.067 1.077-.201l.858 2.152c-.612.309-1.323.463-2.134.463a5.1 5.1 0 0 1-2.034-.402 5.065 5.065 0 0 1-1.596-1.147 5.253 5.253 0 0 1-1.057-1.69 5.568 5.568 0 0 1-.378-2.052c0-.738.126-1.428.378-2.072a5.252 5.252 0 0 1 1.057-1.69 4.807 4.807 0 0 1 1.596-1.127 4.892 4.892 0 0 1 2.034-.422c.651 0 1.23.1 1.735.302.505.2.95.456 1.336.764v-.805H16.7ZM28.326 11.689c0 .724-.14 1.408-.419 2.052a5.188 5.188 0 0 1-1.116 1.69 5.41 5.41 0 0 1-1.675 1.147 5.03 5.03 0 0 1-2.054.422 5.053 5.053 0 0 1-1.696-.282 5.279 5.279 0 0 1-1.475-.804l1.735-1.73c.425.268.904.402 1.436.402.81 0 1.488-.289 2.034-.865.558-.564.837-1.24.837-2.032V7.645c0-.778-.279-1.462-.837-2.052a2.757 2.757 0 0 0-2.034-.845c-.771 0-1.45.282-2.035.845-.558.59-.837 1.274-.837 2.052 0 .805.28 1.489.837 2.052.585.563 1.264.845 2.035.845.398 0 .757-.067 1.076-.201l.898 2.253a5.12 5.12 0 0 1-1.935.362h-.04a5.194 5.194 0 0 1-2.034-.402 5.41 5.41 0 0 1-2.811-2.837 5.151 5.151 0 0 1-.42-2.072 5.9 5.9 0 0 1 .36-2.072c.24-.644.572-1.207.997-1.69a4.65 4.65 0 0 1 1.555-1.127 4.71 4.71 0 0 1 1.995-.422c.69 0 1.303.107 1.834.322.532.2.997.456 1.396.764v-.784h2.393v9.053ZM31.92 3.4a5.173 5.173 0 0 1 1.257-.764 4.132 4.132 0 0 1 1.615-.302v2.414c-.797 0-1.476.282-2.034.845-.558.59-.837 1.274-.837 2.052v5.05h-2.393V2.615h2.393V3.4ZM42.85 8.872h-5.224c.133.309.325.584.578.825.28.282.592.496.937.644.346.134.712.201 1.097.201.545 0 1.03-.127 1.456-.382l2.493 1.006a5.143 5.143 0 0 1-1.735 1.327 5.28 5.28 0 0 1-2.214.463 5.245 5.245 0 0 1-2.054-.402 5.41 5.41 0 0 1-2.812-2.837 5.322 5.322 0 0 1-.399-2.052c0-.738.133-1.428.4-2.072a5.462 5.462 0 0 1 1.136-1.69 5.136 5.136 0 0 1 1.675-1.127 5.03 5.03 0 0 1 2.054-.422c.731 0 1.416.14 2.054.422a5.136 5.136 0 0 1 1.675 1.127c.479.483.851 1.046 1.117 1.69.28.644.419 1.334.419 2.072 0 .43-.047.832-.14 1.207H42.85Zm-2.612-4.104c-.771 0-1.449.282-2.034.845a2.73 2.73 0 0 0-.578.845h5.224a2.732 2.732 0 0 0-.578-.845 2.757 2.757 0 0 0-2.034-.845ZM54.185 8.872H48.96c.133.309.326.584.578.825.28.282.592.496.937.644.346.134.712.201 1.097.201.545 0 1.03-.127 1.456-.382l2.493 1.006a5.143 5.143 0 0 1-1.735 1.327 5.281 5.281 0 0 1-2.214.463 5.245 5.245 0 0 1-2.054-.402 5.41 5.41 0 0 1-2.812-2.837 5.322 5.322 0 0 1-.398-2.052c0-.738.133-1.428.398-2.072a5.464 5.464 0 0 1 1.137-1.69 5.136 5.136 0 0 1 1.675-1.127 5.03 5.03 0 0 1 2.054-.422c.731 0 1.416.14 2.054.422a5.136 5.136 0 0 1 1.675 1.127c.479.483.851 1.046 1.117 1.69.28.644.419 1.334.419 2.072 0 .43-.047.832-.14 1.207h-2.512Zm-2.613-4.104c-.77 0-1.449.282-2.034.845a2.73 2.73 0 0 0-.578.845h5.225a2.73 2.73 0 0 0-.579-.845 2.757 2.757 0 0 0-2.034-.845Z" fill="currentColor"/>
</symbol><symbol id="user"><g fill="none">
    <path d="M13.3 12.22A4.92 4.92 0 0 0 15 8.5a5 5 0 0 0-10 0 4.92 4.92 0 0 0 1.7 3.72A8 8 0 0 0 2 19.5a1 1 0 1 0 2 0 6 6 0 1 1 12 0 1 1 0 0 0 2 0 8 8 0 0 0-4.7-7.28ZM10 11.5a3 3 0 1 1 0-6 3 3 0 0 1 0 6Zm11.71-2.37a1 1 0 0 0-1.42 0l-2 2-.62-.63a1.002 1.002 0 0 0-1.71.705 1 1 0 0 0 .29.705l1.34 1.34a1 1 0 0 0 1.41 0l2.67-2.67a1 1 0 0 0 .04-1.45Z" fill="#1F1E1E"/>
</g></symbol><symbol id="vk" viewBox="0 0 24 24"><g fill="none">
    <path d="M5.71 2A3.725 3.725 0 0 0 2 5.71v12.58A3.726 3.726 0 0 0 5.71 22h12.58A3.725 3.725 0 0 0 22 18.29V5.71A3.725 3.725 0 0 0 18.29 2H5.71Zm0 1.818h12.58c1.054 0 1.892.838 1.892 1.893v12.578a1.881 1.881 0 0 1-1.893 1.893H5.711a1.88 1.88 0 0 1-1.893-1.893V5.711c0-1.055.838-1.893 1.893-1.893Z" fill="#fff"/>
    <path fill-rule="evenodd" clip-rule="evenodd" d="M17.725 9.406c.083-.234 0-.406-.398-.406h-1.312c-.334 0-.488.149-.572.313 0 0-.667 1.37-1.613 2.26-.306.257-.445.34-.612.34-.083 0-.209-.083-.209-.317v-2.19c0-.28-.092-.406-.37-.406h-2.064c-.208 0-.334.13-.334.254 0 .266.473.328.522 1.077v1.628c0 .357-.077.422-.244.422-.445 0-1.527-1.377-2.17-2.951C8.225 9.123 8.1 9 7.763 9H6.45c-.375 0-.45.149-.45.313 0 .292.445 1.744 2.072 3.665C9.157 14.289 10.685 15 12.076 15c.835 0 .938-.158.938-.43v-.991c0-.316.079-.379.343-.379.195 0 .529.082 1.308.714.89.75 1.036 1.086 1.537 1.086h1.313c.375 0 .563-.158.455-.47-.12-.31-.544-.76-1.108-1.295-.306-.304-.765-.632-.904-.796-.195-.21-.14-.304 0-.492 0 0 1.6-1.897 1.766-2.54Z" fill="currentColor"/>
</g></symbol><symbol id="x"><g fill="none">
    <path d="M18 6 6 18" stroke="#fff" stroke-width="2" stroke-linecap="round" stroke-linejoin="round"/>
</g></symbol></svg>